<?xml version="1.0" encoding="UTF-8"?>
<!DOCTYPE svg PUBLIC "-//W3C//DTD SVG 1.1//EN" "http://www.w3.org/Graphics/SVG/1.1/DTD/svg11.dtd">
<svg version="1.1" xmlns="http://www.w3.org/2000/svg" xmlns:xlink="http://www.w3.org/1999/xlink" x="0" y="0" width="16.697" height="16.697" viewBox="0, 0, 59, 59">
  <g id="Layer_1">
    <g>
      <path d="M51.179,40.429 L45.583,48.469 L41.634,45.228 C41.208,44.876 40.577,44.94 40.227,45.366 C39.876,45.793 39.938,46.424 40.366,46.773 L45.152,50.702 C45.332,50.85 45.556,50.93 45.786,50.93 C45.831,50.93 45.877,50.927 45.923,50.92 C46.199,50.882 46.447,50.73 46.607,50.501 L52.821,41.572 C53.136,41.119 53.025,40.496 52.571,40.18 C52.116,39.861 51.494,39.975 51.179,40.429 z" fill="#9EA793"/>
      <path d="M52,34.479 L52,15 L52,5 C52,4.447 51.552,4 51,4 L46,4 L46,1 C46,0.447 45.552,0 45,0 L38,0 C37.448,0 37,0.447 37,1 L37,4 L15,4 L15,1 C15,0.447 14.552,0 14,0 L7,0 C6.448,0 6,0.447 6,1 L6,4 L1,4 C0.448,4 0,4.447 0,5 L0,15 L0,56 C0,56.553 0.448,57 1,57 L39.104,57 C41.106,58.26 43.466,59 46,59 C53.168,59 59,53.168 59,46 C59,40.997 56.154,36.651 52,34.479 z M39,2 L44,2 L44,5 L44,8 L39,8 L39,5 L39,2 z M8,2 L13,2 L13,5 L13,8 L8,8 L8,5 L8,2 z M2,6 L6,6 L6,9 C6,9.553 6.448,10 7,10 L14,10 C14.552,10 15,9.553 15,9 L15,6 L37,6 L37,9 C37,9.553 37.448,10 38,10 L45,10 C45.552,10 46,9.553 46,9 L46,6 L50,6 L50,14 L2,14 L2,6 z M2,55 L2,16 L50,16 L50,33.636 C49.804,33.573 49.604,33.522 49.404,33.467 C49.219,33.416 49.034,33.366 48.847,33.323 C48.678,33.285 48.507,33.252 48.336,33.221 C48.092,33.176 47.847,33.139 47.601,33.108 C47.464,33.091 47.328,33.072 47.19,33.059 C46.796,33.024 46.399,33 46,33 C45.662,33 45.331,33.025 45,33.051 L45,32 L45,30 L45,21 L36,21 L34,21 L27,21 L25,21 L18,21 L16,21 L7,21 L7,30 L7,32 L7,39 L7,41 L7,50 L16,50 L18,50 L25,50 L27,50 L33.636,50 C33.665,50.088 33.701,50.173 33.731,50.26 C33.815,50.503 33.898,50.747 33.997,50.984 C34.052,51.117 34.117,51.244 34.177,51.374 C34.292,51.628 34.409,51.881 34.54,52.127 C34.598,52.234 34.663,52.337 34.724,52.443 C34.872,52.702 35.022,52.958 35.188,53.206 C35.249,53.297 35.316,53.383 35.379,53.473 C35.555,53.723 35.735,53.971 35.93,54.209 C36.002,54.297 36.08,54.379 36.154,54.465 C36.309,54.645 36.457,54.829 36.622,55.001 L2,55.001 z M40.313,34.328 C40.205,34.38 40.095,34.429 39.989,34.484 C39.801,34.582 39.619,34.69 39.437,34.797 C39.278,34.89 39.119,34.985 38.964,35.084 C38.807,35.186 38.654,35.29 38.502,35.398 C38.329,35.52 38.161,35.648 37.994,35.778 C37.86,35.883 37.726,35.987 37.597,36.098 C37.422,36.246 37.255,36.403 37.088,36.56 C36.973,36.669 36.854,36.774 36.743,36.886 C36.562,37.07 36.391,37.265 36.221,37.46 C36.149,37.543 36.07,37.619 35.999,37.704 L35.999,32 L42.999,32 L42.999,33.362 C42.982,33.366 42.966,33.372 42.95,33.376 C42.029,33.599 41.147,33.92 40.313,34.328 z M33.57,42.199 C33.535,42.314 33.512,42.432 33.48,42.548 C33.4,42.838 33.318,43.128 33.258,43.427 C33.211,43.658 33.185,43.894 33.151,44.128 C33.124,44.317 33.086,44.503 33.066,44.695 C33.023,45.126 33,45.562 33,46 C33,46.361 33.02,46.726 33.053,47.092 C33.059,47.159 33.059,47.227 33.066,47.294 C33.082,47.456 33.114,47.613 33.136,47.773 C33.136,47.773 33.136,47.774 33.136,47.774 C33.147,47.85 33.151,47.925 33.163,48 L27,48 L27,41 L34,41 L34,41.007 C33.99,41.031 33.984,41.056 33.974,41.08 C33.824,41.445 33.687,41.818 33.57,42.199 z M9,41 L16,41 L16,48 L9,48 L9,41 z M9,32 L16,32 L16,39 L9,39 L9,32 z M43,30 L36,30 L36,23 L43,23 L43,30 z M34,30 L27,30 L27,23 L34,23 L34,30 z M34,39 L27,39 L27,32 L34,32 L34,39 z M18,32 L25,32 L25,39 L18,39 L18,32 z M25,30 L18,30 L18,23 L25,23 L25,30 z M16,30 L9,30 L9,23 L16,23 L16,30 z M18,41 L25,41 L25,48 L18,48 L18,41 z M46,57 C43.742,57 41.641,56.314 39.893,55.142 C39.552,54.914 39.23,54.666 38.921,54.406 C38.813,54.314 38.711,54.216 38.607,54.12 C38.41,53.941 38.219,53.757 38.037,53.566 C37.92,53.443 37.807,53.318 37.696,53.191 C37.532,53.002 37.378,52.807 37.228,52.608 C37.132,52.481 37.033,52.358 36.942,52.227 C36.721,51.906 36.513,51.576 36.327,51.234 C36.284,51.154 36.25,51.07 36.209,50.989 C36.063,50.703 35.927,50.413 35.806,50.115 C35.754,49.985 35.709,49.852 35.661,49.72 C35.567,49.458 35.481,49.192 35.406,48.923 C35.389,48.861 35.374,48.799 35.358,48.737 C35.245,48.297 35.162,47.86 35.103,47.425 C35.099,47.394 35.093,47.363 35.089,47.331 C35.031,46.882 35,46.437 35,46 C35,45.621 35.019,45.245 35.058,44.872 C35.061,44.841 35.069,44.811 35.072,44.78 C35.11,44.439 35.16,44.099 35.23,43.764 C35.237,43.732 35.248,43.701 35.255,43.669 C35.327,43.337 35.412,43.007 35.515,42.681 C35.527,42.643 35.544,42.606 35.556,42.568 C35.659,42.256 35.773,41.946 35.905,41.642 C36.029,41.356 36.163,41.075 36.31,40.802 L36.409,40.631 C36.449,40.559 36.496,40.491 36.538,40.42 C36.712,40.127 36.898,39.843 37.095,39.569 C37.144,39.501 37.195,39.434 37.246,39.367 C37.426,39.129 37.616,38.9 37.814,38.679 C37.883,38.602 37.952,38.524 38.023,38.449 C38.219,38.241 38.425,38.044 38.636,37.853 C38.711,37.785 38.784,37.715 38.861,37.649 C39.109,37.437 39.366,37.238 39.631,37.049 C39.673,37.019 39.713,36.986 39.755,36.956 C41.06,36.054 42.559,35.436 44.167,35.166 L44.188,35.163 C44.778,35.064 45.381,35 46,35 C46.389,35 46.776,35.021 47.16,35.063 C47.22,35.069 47.278,35.083 47.338,35.09 C47.666,35.131 47.993,35.18 48.316,35.25 C48.356,35.259 48.394,35.271 48.433,35.28 C48.777,35.359 49.118,35.451 49.455,35.564 C49.478,35.572 49.5,35.581 49.523,35.589 C49.868,35.707 50.208,35.842 50.545,35.995 C54.347,37.729 57,41.557 57,46 C57,52.065 52.065,57 46,57 z" fill="#9EA793"/>
    </g>
  </g>
</svg>
