<?xml version="1.0" encoding="UTF-8"?>
<!DOCTYPE svg PUBLIC "-//W3C//DTD SVG 1.1//EN" "http://www.w3.org/Graphics/SVG/1.1/DTD/svg11.dtd">
<svg version="1.1" xmlns="http://www.w3.org/2000/svg" xmlns:xlink="http://www.w3.org/1999/xlink" x="0" y="0" width="27.344" height="27.344" viewBox="0, 0, 455.73, 455.73">
  <g id="Layer_1">
    <path d="M227.86,182.55 C202.88,182.55 182.54,202.88 182.54,227.86 C182.54,252.85 202.88,273.19 227.86,273.19 C252.85,273.19 273.18,252.85 273.18,227.86 C273.18,202.88 252.85,182.55 227.86,182.55 z M227.86,182.55 C202.88,182.55 182.54,202.88 182.54,227.86 C182.54,252.85 202.88,273.19 227.86,273.19 C252.85,273.19 273.18,252.85 273.18,227.86 C273.18,202.88 252.85,182.55 227.86,182.55 z M303.36,108.66 L152.37,108.66 C128.27,108.66 108.66,128.27 108.66,152.37 L108.66,303.36 C108.66,327.46 128.27,347.07 152.37,347.07 L303.36,347.07 C327.46,347.07 347.07,327.46 347.07,303.36 L347.07,152.37 C347.07,128.27 327.46,108.66 303.36,108.66 z M227.86,306.35 C184.59,306.35 149.38,271.14 149.38,227.86 C149.38,184.59 184.59,149.38 227.86,149.38 C271.14,149.38 306.35,184.59 306.35,227.86 C306.35,271.14 271.14,306.35 227.86,306.35 z M308.87,165.61 C298.63,165.61 290.3,157.28 290.3,147.04 C290.3,136.8 298.63,128.47 308.87,128.47 C319.11,128.47 327.44,136.8 327.44,147.04 C327.44,157.28 319.11,165.61 308.87,165.61 z M227.86,182.55 C202.88,182.55 182.54,202.88 182.54,227.86 C182.54,252.85 202.88,273.19 227.86,273.19 C252.85,273.19 273.18,252.85 273.18,227.86 C273.18,202.88 252.85,182.55 227.86,182.55 z M303.36,108.66 L152.37,108.66 C128.27,108.66 108.66,128.27 108.66,152.37 L108.66,303.36 C108.66,327.46 128.27,347.07 152.37,347.07 L303.36,347.07 C327.46,347.07 347.07,327.46 347.07,303.36 L347.07,152.37 C347.07,128.27 327.46,108.66 303.36,108.66 z M227.86,306.35 C184.59,306.35 149.38,271.14 149.38,227.86 C149.38,184.59 184.59,149.38 227.86,149.38 C271.14,149.38 306.35,184.59 306.35,227.86 C306.35,271.14 271.14,306.35 227.86,306.35 z M308.87,165.61 C298.63,165.61 290.3,157.28 290.3,147.04 C290.3,136.8 298.63,128.47 308.87,128.47 C319.11,128.47 327.44,136.8 327.44,147.04 C327.44,157.28 319.11,165.61 308.87,165.61 z M227.86,182.55 C202.88,182.55 182.54,202.88 182.54,227.86 C182.54,252.85 202.88,273.19 227.86,273.19 C252.85,273.19 273.18,252.85 273.18,227.86 C273.18,202.88 252.85,182.55 227.86,182.55 z M-0,-0 L-0,455.73 L455.73,455.73 L455.73,-0 L-0,-0 z M380.23,303.36 C380.23,345.75 345.75,380.23 303.36,380.23 L152.37,380.23 C109.98,380.23 75.5,345.75 75.5,303.36 L75.5,152.37 C75.5,109.98 109.98,75.5 152.37,75.5 L303.36,75.5 C345.75,75.5 380.23,109.98 380.23,152.37 L380.23,303.36 z M303.36,108.66 L152.37,108.66 C128.27,108.66 108.66,128.27 108.66,152.37 L108.66,303.36 C108.66,327.46 128.27,347.07 152.37,347.07 L303.36,347.07 C327.46,347.07 347.07,327.46 347.07,303.36 L347.07,152.37 C347.07,128.27 327.46,108.66 303.36,108.66 z M227.86,306.35 C184.59,306.35 149.38,271.14 149.38,227.86 C149.38,184.59 184.59,149.38 227.86,149.38 C271.14,149.38 306.35,184.59 306.35,227.86 C306.35,271.14 271.14,306.35 227.86,306.35 z M308.87,165.61 C298.63,165.61 290.3,157.28 290.3,147.04 C290.3,136.8 298.63,128.47 308.87,128.47 C319.11,128.47 327.44,136.8 327.44,147.04 C327.44,157.28 319.11,165.61 308.87,165.61 z M227.86,182.55 C202.88,182.55 182.54,202.88 182.54,227.86 C182.54,252.85 202.88,273.19 227.86,273.19 C252.85,273.19 273.18,252.85 273.18,227.86 C273.18,202.88 252.85,182.55 227.86,182.55 z M227.86,182.55 C202.88,182.55 182.54,202.88 182.54,227.86 C182.54,252.85 202.88,273.19 227.86,273.19 C252.85,273.19 273.18,252.85 273.18,227.86 C273.18,202.88 252.85,182.55 227.86,182.55 z M227.86,182.55 C202.88,182.55 182.54,202.88 182.54,227.86 C182.54,252.85 202.88,273.19 227.86,273.19 C252.85,273.19 273.18,252.85 273.18,227.86 C273.18,202.88 252.85,182.55 227.86,182.55 z M303.36,108.66 L152.37,108.66 C128.27,108.66 108.66,128.27 108.66,152.37 L108.66,303.36 C108.66,327.46 128.27,347.07 152.37,347.07 L303.36,347.07 C327.46,347.07 347.07,327.46 347.07,303.36 L347.07,152.37 C347.07,128.27 327.46,108.66 303.36,108.66 z M227.86,306.35 C184.59,306.35 149.38,271.14 149.38,227.86 C149.38,184.59 184.59,149.38 227.86,149.38 C271.14,149.38 306.35,184.59 306.35,227.86 C306.35,271.14 271.14,306.35 227.86,306.35 z M308.87,165.61 C298.63,165.61 290.3,157.28 290.3,147.04 C290.3,136.8 298.63,128.47 308.87,128.47 C319.11,128.47 327.44,136.8 327.44,147.04 C327.44,157.28 319.11,165.61 308.87,165.61 z M227.86,182.55 C202.88,182.55 182.54,202.88 182.54,227.86 C182.54,252.85 202.88,273.19 227.86,273.19 C252.85,273.19 273.18,252.85 273.18,227.86 C273.18,202.88 252.85,182.55 227.86,182.55 z M227.86,182.55 C202.88,182.55 182.54,202.88 182.54,227.86 C182.54,252.85 202.88,273.19 227.86,273.19 C252.85,273.19 273.18,252.85 273.18,227.86 C273.18,202.88 252.85,182.55 227.86,182.55 z M227.86,182.55 C202.88,182.55 182.54,202.88 182.54,227.86 C182.54,252.85 202.88,273.19 227.86,273.19 C252.85,273.19 273.18,252.85 273.18,227.86 C273.18,202.88 252.85,182.55 227.86,182.55 z M303.36,108.66 L152.37,108.66 C128.27,108.66 108.66,128.27 108.66,152.37 L108.66,303.36 C108.66,327.46 128.27,347.07 152.37,347.07 L303.36,347.07 C327.46,347.07 347.07,327.46 347.07,303.36 L347.07,152.37 C347.07,128.27 327.46,108.66 303.36,108.66 z M227.86,306.35 C184.59,306.35 149.38,271.14 149.38,227.86 C149.38,184.59 184.59,149.38 227.86,149.38 C271.14,149.38 306.35,184.59 306.35,227.86 C306.35,271.14 271.14,306.35 227.86,306.35 z M308.87,165.61 C298.63,165.61 290.3,157.28 290.3,147.04 C290.3,136.8 298.63,128.47 308.87,128.47 C319.11,128.47 327.44,136.8 327.44,147.04 C327.44,157.28 319.11,165.61 308.87,165.61 z M227.86,182.55 C202.88,182.55 182.54,202.88 182.54,227.86 C182.54,252.85 202.88,273.19 227.86,273.19 C252.85,273.19 273.18,252.85 273.18,227.86 C273.18,202.88 252.85,182.55 227.86,182.55 z" fill="#FFFFFF"/>
  </g>
</svg>
