<?xml version="1.0" encoding="UTF-8"?>
<!DOCTYPE svg PUBLIC "-//W3C//DTD SVG 1.1//EN" "http://www.w3.org/Graphics/SVG/1.1/DTD/svg11.dtd">
<svg version="1.1" xmlns="http://www.w3.org/2000/svg" xmlns:xlink="http://www.w3.org/1999/xlink" x="0" y="0" width="365.5" height="124" viewBox="0, 0, 731, 248">
  <defs>
    <clipPath id="Clip_1">
      <path d="M0,0 L731,0 L731,248 L0,248 z"/>
    </clipPath>
  </defs>
  <g id="Layer_1" transform="translate(0, 0)">
    <g clip-path="url(#Clip_1)">
      <path d="M153.307,100.93 L152.257,103.23 C145.546,117.92 134.401,125.368 119.131,125.368 C95.754,125.368 81.232,108.547 81.232,81.469 C81.232,54.045 97.354,41.769 113.331,41.769 C123.433,41.769 131.091,44.998 137.384,51.459 L150.424,85 L158,85 L158,36 L150.846,36 L145.666,41.322 C135.786,35.789 124.448,32.877 111.932,32.877 C80.291,32.877 56.432,55.995 56.432,86.723 C56.432,118.929 78.843,141.395 110.932,141.395 C134.114,141.395 152.564,128.423 160.286,106.719 L161.046,104.577 z" fill="#FFFFFF"/>
      <path d="M212.516,126.368 C201.809,126.368 195.424,119.901 195.424,109.068 C195.424,98.148 202.207,91.333 214.054,90.365 L236,89.651 L236,98.068 C236,114.995 226.572,126.368 212.516,126.368 M276.776,120.029 L275.378,122.396 C273.876,124.938 271.011,127.968 266.915,127.968 C262.166,127.968 259,124.481 259,118.868 L259,69.268 C259,46.073 243.506,32.769 216.116,32.769 C205.481,32.769 193.152,35.305 178.852,40.52 L177,41.119 L177,73 L185.905,73 L205.232,42.584 C209.997,41.885 213.489,41.777 216.316,41.777 C227.915,41.777 236,49.13 236,59.669 L236,82 L206.931,82 C184.418,82 170.432,93.218 170.432,111.784 C170.432,129.389 184.289,141.526 204.131,141.526 C222.75,141.526 232.163,132.367 236.848,124.317 C239.769,136.808 249.985,141.408 258.931,141.408 C269.715,141.408 277.7,136.167 282.021,126.289 L282.827,124.437 z" fill="#FFFFFF"/>
      <path d="M449,125.444 L449,71.669 C449,46.947 436.885,32.769 415.214,32.769 C400.162,32.769 388.598,40.101 382.258,53.17 C377.566,39.942 366.841,32.769 351.636,32.769 C338.137,32.769 327,39.287 320,50.691 L320,35 L280,35 L280,43.492 L296,48.692 L296,125.444 L280,130.644 L280,139 L335,139 L335,130.696 L320,125.496 L320,80.868 C320,61.549 329.383,48.569 343.199,48.569 C347.577,48.569 361,48.569 361,70.869 L361,125.496 L346,130.696 L346,139 L399,139 L399,130.696 L385,125.496 L385,78.468 C385,60.026 393.222,48.569 407.1,48.569 C419.242,48.569 425,56.475 425,72.068 L425,125.496 L411,130.696 L411,139 L465,139 L465,130.644 z" fill="#FFFFFF"/>
      <path d="M495.562,162.853 C495.431,163.183 495.294,163.51 495.16,163.838 C494.582,165.243 493.978,166.633 493.342,168.007 C481.259,194.161 458.887,214.582 431.414,224.078 C427.849,225.311 424.199,226.363 420.474,227.215 C420.473,227.216 420.471,227.216 420.47,227.217 C419.539,227.407 418.574,227.507 417.587,227.507 C409.685,227.507 403.279,221.1 403.279,213.198 C403.279,210.553 404,208.079 405.25,205.954 C405.487,205.47 413.48,194.8 413.48,194.8 C430.642,174.839 456.076,162.076 484.465,162.076 C488.219,162.076 491.947,162.366 495.586,162.796 z M717.26,96.927 C717.146,97.096 717.028,97.25 716.912,97.419 C692.38,133.448 652.516,156.837 605.516,159.637 C603.841,159.737 599.919,159.803 596.537,159.817 C599.404,159.394 602.192,158.873 604.635,158.248 C635.563,151.408 660.732,134.089 677.263,109.146 C677.912,108.299 678.542,107.437 679.128,106.543 C679.571,105.836 680.01,105.124 680.438,104.407 C684.071,98.091 686.159,90.774 686.159,82.965 C686.159,75.458 684.237,68.402 680.86,62.257 C674.753,51.136 663.878,43.014 650.987,40.621 L645.854,39.982 C640.87,40.64 637.021,44.896 637.021,50.06 C637.021,51.168 637.203,52.232 637.531,53.23 C638.945,53.023 640.393,52.912 641.865,52.912 C646.716,52.912 651.292,54.084 655.336,56.149 C664.951,61.059 671.537,71.049 671.537,82.585 C671.537,86.381 670.817,90.007 669.518,93.344 C668.042,96.106 666.464,98.807 664.781,101.434 C658.937,110.556 651.87,118.819 643.823,126.006 C643.815,126.006 643.807,126.469 643.799,126.469 C622.838,145.18 595.19,157 564.881,157 L563.443,157 L555.425,157 L541.062,157 L511.858,157 L516.221,144.919 L518.06,139.91 L518.161,139.652 C518.247,139.454 518.334,139.253 518.422,139.052 L556.315,48.785 L569,43.331 L569,35 L534,35 L534,43.446 L546.958,47.949 L519.424,112.214 L490.059,50.688 L501,42.553 L501,35 L449,35 L449,42.508 L464.029,53.7 L505.352,137.936 C506.191,139.652 506.227,141.629 505.517,143.404 C504.785,145.238 502.522,150 502.512,150.026 C500.217,155.587 496.126,156.576 491.638,156.576 L462.401,156.375 C426.401,156.607 394.721,177.752 379.56,208.584 C379.504,208.701 379.503,208.754 379.445,208.871 C377.741,212.442 376.812,216.408 376.812,220.63 C376.812,223.294 377.215,225.851 377.924,228.286 C380.021,235.485 384.996,241.449 391.516,244.874 C395.215,246.816 399.413,247.933 403.866,247.992 C403.991,247.994 404.115,248 404.24,248 C404.615,248 404.987,247.986 405.358,247.971 C452.137,247.008 491.505,215.893 504.815,173.27 L506.728,168.609 C506.729,168.605 506.732,168.6 506.733,168.596 C506.966,168.046 507.253,167.524 507.572,167.027 C507.944,166.446 508.371,165.905 508.848,165.411 C510.754,163.434 513.558,162.076 516.521,162.076 L574.596,161.576 C576.224,161.576 577.862,161.886 579.505,161.886 C581.021,161.886 582.529,162 584.031,162 L600.206,162 C601.974,162 603.742,161.66 605.516,161.662 C605.516,161.662 605.808,161.541 605.841,161.541 C649.261,161.541 688.344,142.232 714.922,111.996 C720.951,105.138 726.339,97.65 731,89.738 C725.32,89.801 720.315,92.605 717.26,96.927" fill="#FFFFFF"/>
      <path d="M1,-0 L1,8.32 L18,13.52 L18,125.418 L1,130.618 L1,139 L59,139 L59,130.618 L42,125.418 L42,13.52 L59,8.32 L59,-0 z" fill="#FFFFFF"/>
    </g>
  </g>
</svg>
