<?xml version="1.0" encoding="UTF-8"?>
<!DOCTYPE svg PUBLIC "-//W3C//DTD SVG 1.1//EN" "http://www.w3.org/Graphics/SVG/1.1/DTD/svg11.dtd">
<svg version="1.1" xmlns="http://www.w3.org/2000/svg" xmlns:xlink="http://www.w3.org/1999/xlink" x="0" y="0" width="200" height="140" viewBox="0, 0, 400, 280">
  <g id="Layer_1">
    <path d="M339.082,80.511 L324.808,66.238 C322.906,64.332 320.715,63.382 318.238,63.382 C315.767,63.382 313.577,64.332 311.675,66.238 L199.466,178.441 L87.262,66.241 C85.359,64.335 83.169,63.385 80.695,63.385 C78.22,63.385 76.03,64.335 74.128,66.241 L59.856,80.515 C57.95,82.417 57,84.607 57,87.082 C57,89.555 57.953,91.745 59.856,93.647 L192.899,226.693 C194.801,228.596 196.992,229.547 199.466,229.547 C201.94,229.547 204.127,228.596 206.028,226.693 L339.082,93.647 C340.984,91.744 341.929,89.554 341.929,87.082 C341.929,84.607 340.984,82.417 339.082,80.511 z" fill="#808080"/>
  </g>
</svg>
