<?xml version="1.0" encoding="UTF-8"?>
<!DOCTYPE svg PUBLIC "-//W3C//DTD SVG 1.1//EN" "http://www.w3.org/Graphics/SVG/1.1/DTD/svg11.dtd">
<svg version="1.1" xmlns="http://www.w3.org/2000/svg" xmlns:xlink="http://www.w3.org/1999/xlink" x="0" y="0" width="82.59" height="82.59" viewBox="0, 0, 291.837, 291.837">
  <g id="Layer_1">
    <path d="M127.551,260.281 L127.551,290.251 C131.499,291.3 134.562,291.837 145.33,291.837 C156.089,291.837 160.319,291.299 164.258,290.251 L164.258,260.281 C184.982,257.126 204.932,249.705 217.806,238.007 C230.662,226.327 237.108,211.776 237.108,194.434 C237.108,162.896 218.854,140.157 182.347,126.225 L146.104,112.421 C139.804,110.05 135.208,107.826 132.318,105.71 C129.428,103.613 127.969,100.723 127.969,97.039 C127.969,87.046 135.063,82.05 149.24,82.05 C163.427,82.05 183.632,87.311 209.9,97.814 C216.2,92.562 221.324,85.533 225.272,76.725 C229.211,67.917 231.171,59.046 231.171,50.101 C205.441,39.269 182.738,35.248 164.102,33.142 L164.102,1.979 C159.118,0.656 156.609,-0 146.882,-0 C137.181,-0 132.649,0.656 127.689,1.979 L127.689,33.526 C109.563,36.945 93.78,42.288 80.915,56.794 C70.001,69.103 64.184,83.609 64.184,100.969 C64.184,129.89 81.772,151.052 116.966,164.464 L154.385,177.876 C166.201,182.344 172.101,188.662 172.101,196.804 C172.101,202.056 169.876,206.068 165.409,208.83 C160.95,211.584 154.915,212.96 147.301,212.96 C127.862,212.96 104.494,205.73 77.186,191.269 C71.405,195.217 66.281,201.845 61.823,211.191 C57.355,220.527 54.985,229.007 54.729,236.629 C84.79,254.811 98.932,256.343 127.551,260.281 z" fill="#9EA793"/>
  </g>
</svg>
