<?xml version="1.0" encoding="UTF-8"?>
<!DOCTYPE svg PUBLIC "-//W3C//DTD SVG 1.1//EN" "http://www.w3.org/Graphics/SVG/1.1/DTD/svg11.dtd">
<svg version="1.1" xmlns="http://www.w3.org/2000/svg" xmlns:xlink="http://www.w3.org/1999/xlink" x="0" y="0" width="144.79" height="93.078" viewBox="0, 0, 511.626, 328.896">
  <g id="Layer_1" transform="translate(0, -91.365)">
    <path d="M505.918,236.117 C479.267,192.53 443.433,157.508 398.421,131.052 C353.406,104.595 305.872,91.365 255.813,91.365 C205.754,91.365 158.218,104.59 113.203,131.052 C68.187,157.508 32.355,192.53 5.708,236.117 C1.903,242.778 -0,249.345 -0,255.818 C-0,262.291 1.903,268.858 5.708,275.517 C32.355,319.106 68.187,354.131 113.203,380.581 C158.218,407.041 205.754,420.261 255.813,420.261 C305.873,420.261 353.407,407.085 398.421,380.725 C443.433,354.364 479.273,319.293 505.918,275.517 C509.724,268.858 511.626,262.294 511.626,255.818 C511.626,249.345 509.724,242.778 505.918,236.117 z M194.568,158.03 C211.602,140.996 232.015,132.476 255.81,132.476 C259.615,132.476 262.853,133.812 265.519,136.475 C268.181,139.139 269.519,142.376 269.519,146.182 C269.519,149.991 268.181,153.226 265.525,155.886 C262.863,158.553 259.623,159.885 255.817,159.885 C239.449,159.885 225.455,165.693 213.846,177.301 C202.233,188.916 196.43,202.904 196.43,219.272 C196.43,223.083 195.094,226.316 192.431,228.982 C189.764,231.65 186.53,232.981 182.724,232.981 C178.915,232.981 175.68,231.647 173.014,228.982 C170.347,226.316 169.015,223.079 169.015,219.272 C169.015,195.482 177.535,175.065 194.568,158.03 z M379.867,349.04 C341.703,372.16 300.353,383.727 255.813,383.727 C211.274,383.727 169.924,372.167 131.762,349.04 C93.6,325.913 61.861,294.84 36.547,255.818 C65.478,210.897 101.737,177.3 145.324,155.035 C133.714,174.827 127.907,196.242 127.907,219.271 C127.907,254.487 140.424,284.6 165.451,309.633 C190.478,334.666 220.602,347.177 255.813,347.177 C291.027,347.177 321.142,334.659 346.175,309.633 C371.208,284.607 383.72,254.487 383.72,219.271 C383.72,196.242 377.912,174.824 366.301,155.035 C409.886,177.3 446.147,210.9 475.077,255.818 C449.767,294.84 418.031,325.913 379.867,349.04 z" fill="#FFFFFF"/>
  </g>
</svg>
