<?xml version="1.0" encoding="UTF-8"?>
<!DOCTYPE svg PUBLIC "-//W3C//DTD SVG 1.1//EN" "http://www.w3.org/Graphics/SVG/1.1/DTD/svg11.dtd">
<svg version="1.1" xmlns="http://www.w3.org/2000/svg" xmlns:xlink="http://www.w3.org/1999/xlink" x="0" y="0" width="377.733" height="377.733" viewBox="0, 0, 377.733, 377.733">
  <g id="Layer_1">
    <g>
      <path d="M354.273,131.125 C352.264,127.19 348.937,123.325 345.048,125.322 C344.861,125.409 343.95,125.888 342.49,126.624 C341.357,127.202 339.98,127.92 338.17,128.854 L190.735,204.416 C190.899,203.727 190.998,203.062 191.191,202.384 C193.947,195.786 235.879,22.2 235.879,22.2 L234.535,13.892 L172.104,166.768 L181.2,188.435 L169.984,215.053 L54.633,274.175 C50.5,276.3 48.071,277.538 47.773,277.678 C43.885,279.687 45.07,284.661 47.078,288.561 C49.087,292.497 69.294,330.015 72.056,335.41 C78.729,332.795 79.126,328.765 76.972,324.551 C74.806,320.347 60.426,292.276 60.426,292.276 C60.426,292.276 61.419,291.774 63.199,290.851 L66.737,289.03 L85.596,325.824 L90.915,323.08 L72.057,286.298 L76.518,284.021 L95.388,320.816 L100.706,318.084 L81.853,281.301 L85.596,279.373 L104.449,316.168 L109.773,313.436 L90.914,276.65 L95.387,274.362 L114.245,311.144 L119.576,308.412 L100.717,271.63 L105.324,269.248 L124.182,306.055 L129.501,303.323 L110.643,266.516 L115.104,264.227 L133.828,300.764 C133.484,301.442 133.087,302.108 132.766,302.82 C124.084,321.468 127.792,342.93 141.758,354.981 C144.292,357.188 147.13,359.022 150.166,360.422 C160.016,365.024 171.261,364.977 181.805,360.306 C192.07,355.776 200.465,347.368 205.463,336.649 C212.843,320.768 211.22,302.878 201.971,290.442 C201.049,288.656 197.429,281.182 194.065,270.206 L196.716,268.852 L190.673,257.058 C189.599,251.944 188.705,246.467 188.203,240.628 L201.433,266.435 L206.746,263.714 L187.876,226.907 L192.349,224.63 L211.207,261.425 L216.543,258.693 L197.685,221.91 L201.445,219.972 L220.291,256.755 L225.628,254.034 L206.77,217.239 L211.231,214.95 L230.101,251.733 L235.425,249.012 L216.543,212.264 L221.156,209.905 L240.025,246.699 L245.35,243.978 L226.492,207.184 L230.965,204.907 L249.823,241.69 L255.135,238.958 L236.265,202.164 L240.632,199.911 L259.491,236.717 L264.815,233.996 L245.957,197.2 L250.429,194.911 L269.288,231.694 L274.6,228.962 L255.753,192.179 L260.365,189.809 L279.223,226.604 L284.548,223.872 L265.69,187.083 L270.138,184.788 L289.009,221.595 L294.333,218.874 L275.463,182.073 L280.181,179.656 L299.039,216.444 L304.364,213.712 L285.493,176.918 L289.966,174.635 L308.824,211.424 L314.161,208.703 L295.303,171.908 L299.063,169.97 L317.91,206.776 L323.234,204.044 L304.365,167.249 L308.837,164.96 L327.695,201.743 L333.02,199.022 L314.162,162.228 L318.774,159.857 L337.632,196.652 L342.956,193.931 L324.1,157.129 L328.548,154.846 L347.406,191.64 L352.719,188.896 L333.861,152.107 L338.532,149.713 L357.39,186.508 L362.702,183.781 L343.844,146.986 L346.729,145.503 C348.527,144.598 349.519,144.085 349.519,144.085 C349.519,144.085 363.906,172.157 366.066,176.355 C368.214,180.576 371.707,182.608 377.732,178.714 C374.954,173.355 356.293,135.042 354.273,131.125 z M181.873,163.348 C184.349,160.487 188.663,160.166 191.53,162.641 C194.379,165.117 194.706,169.443 192.231,172.304 C189.755,175.159 185.435,175.486 182.568,173.011 C179.707,170.535 179.397,166.203 181.873,163.348 z M158.641,241.923 L158.367,242.623 L158.151,242.19 L158.641,241.923 z M152.814,244.912 L155.331,249.816 L152.779,255.841 L148.359,247.224 L152.814,244.912 z M143.035,249.945 L149.755,263.047 L147.63,268.115 L139.293,251.872 L143.035,249.945 z M133.95,254.592 L144.576,275.32 L142.042,281.334 L129.513,256.87 L133.95,254.592 z M124.182,259.614 L139.006,288.527 L136.863,293.605 L120.422,261.529 L124.182,259.614 z M193.69,331.218 C190.017,339.075 183.939,345.206 176.565,348.464 C169.483,351.594 162.062,351.687 155.64,348.698 C153.702,347.787 151.874,346.607 150.245,345.206 C140.646,336.903 138.287,321.747 144.529,308.342 C148.202,300.472 154.274,294.341 161.654,291.083 C168.718,287.954 176.157,287.872 182.567,290.85 C184.529,291.773 186.333,292.928 187.974,294.341 C197.578,302.621 199.937,317.8 193.69,331.218 z" fill="#FFFFFF"/>
      <path d="M202.039,181.774 L336.677,102.171 L327.861,102.329 C327.861,102.329 260.063,129.986 209.817,150.771 C206.873,162.629 204.188,173.343 202.039,181.774 z" fill="#FFFFFF"/>
      <path d="M65.171,244.375 C65.23,244.328 65.299,244.282 65.358,244.235 C65.288,244.398 65.253,244.504 65.253,244.504 L172.139,181.179 L172.209,181.191 L166.96,168.691 C161.391,171.062 157.806,172.649 157,173.128 C114.921,190.381 70.479,174.816 67.308,173.654 C53.868,166.683 36.364,167.64 21.99,176.824 C12.017,183.2 4.807,192.635 1.678,203.413 C-1.551,214.483 -0.079,225.623 5.765,234.778 C7.657,237.744 9.963,240.406 12.619,242.694 C26.415,254.627 48.047,255.328 65.171,244.375 z M21.084,232.861 C19.385,231.39 17.914,229.673 16.705,227.794 C12.893,221.815 11.981,214.459 14.148,207.009 C16.396,199.279 21.668,192.442 28.972,187.765 C41.303,179.883 56.559,180.122 66.065,188.337 C67.775,189.809 69.247,191.519 70.467,193.417 C74.268,199.373 75.178,206.741 73.024,214.167 C70.776,221.908 65.504,228.74 58.188,233.422 C45.846,241.316 30.601,241.082 21.084,232.861 z" fill="#FFFFFF"/>
    </g>
  </g>
</svg>
