<?xml version="1.0" encoding="UTF-8"?>
<!DOCTYPE svg PUBLIC "-//W3C//DTD SVG 1.1//EN" "http://www.w3.org/Graphics/SVG/1.1/DTD/svg11.dtd">
<svg version="1.1" xmlns="http://www.w3.org/2000/svg" xmlns:xlink="http://www.w3.org/1999/xlink" x="0" y="0" width="945.405" height="945.405" viewBox="0, 0, 945.405, 945.405">
  <g id="Layer_1">
    <path d="M615.6,894.153 L-0,894.153 L-0,836.753 C11.2,845.653 25.5,851.054 40.9,851.054 L573.1,851.054 L615.6,894.153 z M266.4,51.252 C233.4,51.252 206.6,78.052 206.6,111.052 C206.6,131.552 216.9,149.652 232.7,160.452 C239.5,141.652 250.5,124.352 265.1,109.752 C279.7,95.152 297,84.152 315.8,77.352 C305,61.553 286.9,51.252 266.4,51.252 z M249.3,207.953 C249.3,270.953 300.401,321.953 363.3,321.953 C426.2,321.953 477.3,270.853 477.3,207.953 C477.3,144.953 426.2,93.953 363.3,93.953 C349.901,93.953 337.1,96.253 325.2,100.453 C292.9,111.953 267.2,137.553 255.8,169.853 C251.6,181.853 249.3,194.652 249.3,207.953 z M187.4,365.252 C160.7,424.452 102.5,575.752 86.5,613.852 L285.1,613.852 C289.5,603.053 294.401,592.553 299.8,582.653 C318.5,547.753 376.901,530.452 363,481.753 C362.9,481.353 362.7,480.952 362.6,480.452 L414.901,530.054 C418.8,533.753 423.501,536.753 428.501,538.654 L571.501,593.254 C576.301,595.055 581.301,595.953 586.201,595.953 C602.801,595.953 618.401,585.853 624.6,569.453 C632.701,548.254 622.1,524.453 600.8,516.353 L474.4,468.053 C468.5,465.753 463.099,462.353 458.5,458.053 C458.5,458.053 347.2,352.453 347.1,352.353 C342.401,347.853 336.3,344.953 329.901,342.853 C328.401,342.353 326.8,341.853 325.201,341.453 C323.501,340.953 321.701,340.453 319.901,340.053 C292.1,332.653 261.201,326.353 232.601,328.853 C223.201,329.653 212.901,332.053 204.901,337.553 C195.7,344.152 191.9,355.353 187.4,365.252 z M40.9,826.053 L583.5,826.053 L635.5,878.752 C640.4,883.752 646.3,887.652 652.6,890.252 C658.8,892.752 665.401,894.152 672.201,894.152 L893.801,894.152 C922.601,894.152 945.801,870.552 945.402,841.752 C944.902,813.451 921.301,791.053 893.002,791.053 L693.8,791.053 L558.4,653.653 C547.9,642.952 541.7,638.553 522.9,638.553 C490.5,638.553 40.9,638.852 40.9,638.852 C18.3,638.852 -0,657.153 -0,679.752 L-0,774.553 L-0,785.153 C-0,807.752 18.3,826.053 40.9,826.053 z M871,637.452 C871,572.153 818,519.153 752.7,519.153 C687.4,519.153 634.4,572.153 634.4,637.452 C634.4,702.753 687.4,755.753 752.7,755.753 C818,755.753 871,702.852 871,637.452 z" fill="#FFFFFF"/>
  </g>
</svg>
