<?xml version="1.0" encoding="UTF-8"?>
<!DOCTYPE svg PUBLIC "-//W3C//DTD SVG 1.1//EN" "http://www.w3.org/Graphics/SVG/1.1/DTD/svg11.dtd">
<svg version="1.1" xmlns="http://www.w3.org/2000/svg" xmlns:xlink="http://www.w3.org/1999/xlink" x="0" y="0" width="137.218" height="137.218" viewBox="0, 0, 137.218, 137.218">
  <g id="Layer_1">
    <g>
      <path d="M129.942,77.41 L130.812,76.836 C132.505,75.665 132.903,73.353 131.731,71.671 C130.549,69.974 128.224,69.591 126.566,70.746 C68.555,111.304 26.327,72.742 24.553,71.085 C23.056,69.684 20.697,69.755 19.303,71.243 C17.902,72.737 17.97,75.074 19.452,76.48 C19.532,76.556 20.853,77.765 23.264,79.554 L15.833,91.809 C14.773,93.557 15.329,95.839 17.078,96.908 C17.676,97.268 18.355,97.449 19.012,97.449 C20.261,97.449 21.477,96.814 22.184,95.671 L29.45,83.698 C33.524,86.178 38.748,88.886 44.972,91.174 L41.391,103.146 C40.798,105.117 41.907,107.173 43.866,107.759 L44.934,107.917 C46.517,107.917 47.997,106.877 48.479,105.268 L52.025,93.46 C57.77,95.031 64.197,96.092 71.133,96.344 L71.133,108.202 C71.133,110.254 72.79,111.911 74.842,111.911 C76.892,111.911 78.55,110.254 78.55,108.202 L78.55,96.278 C84.602,95.946 91.016,94.905 97.713,92.995 L102.278,105.033 C102.847,106.516 104.257,107.424 105.746,107.424 L107.058,107.19 C108.973,106.462 109.944,104.323 109.216,102.409 L104.771,90.68 C110.869,88.415 117.172,85.433 123.682,81.477 L129.691,89.498 C130.423,90.467 131.54,90.987 132.656,90.987 C133.434,90.987 134.211,90.751 134.878,90.242 C136.522,89.012 136.854,86.687 135.63,85.05 L129.942,77.41 z" fill="#FFFFFF"/>
      <path d="M137.987,48.4 C137.987,48.4 136.508,46.252 133.384,43.385 C131.857,41.872 129.854,40.348 127.513,38.583 C125.128,36.996 122.42,35.114 119.283,33.521 C116.155,31.863 112.684,30.279 108.899,28.982 C105.139,27.499 100.998,26.629 96.684,25.846 C92.35,25.301 87.775,25.2 83.163,25.403 C78.535,25.794 73.909,25.799 69.246,26.365 C64.61,26.754 59.999,27.177 55.5,28.07 C53.247,28.462 51.013,28.776 48.838,29.258 C46.681,29.852 44.544,30.44 42.448,31.017 C38.252,32.06 34.298,33.398 30.649,34.968 C26.962,36.374 23.543,37.791 20.547,39.507 C17.515,41.108 14.736,42.476 12.347,43.849 C10.074,45.4 8.078,46.746 6.436,47.854 C3.235,50.095 1.405,51.378 1.405,51.378 L1,52.647 C1.186,53.235 1.818,53.544 2.412,53.347 L2.531,53.303 C2.531,53.303 4.604,52.597 8.251,51.358 C10.035,50.733 12.213,49.969 14.697,49.09 C17.223,48.368 20.148,47.733 23.254,46.959 C26.318,46.075 29.765,45.553 33.402,45.112 C35.183,44.853 37.021,44.573 38.903,44.295 C40.803,44.092 42.759,44.043 44.715,43.9 C46.681,43.777 48.665,43.655 50.675,43.531 C52.698,43.542 54.749,43.559 56.805,43.578 C60.888,43.457 65.069,43.814 69.218,44.178 C77.51,44.76 85.554,47.488 93.108,48.749 C100.696,50.01 107.99,50.363 114.424,50.716 C120.881,50.9 126.441,51.023 130.518,50.823 C134.575,50.676 137.068,50.424 137.068,50.424 L137.68,50.189 C138.249,49.79 138.393,48.989 137.987,48.4 z" fill="#FFFFFF"/>
    </g>
  </g>
</svg>
