<?xml version="1.0" encoding="UTF-8"?>
<!DOCTYPE svg PUBLIC "-//W3C//DTD SVG 1.1//EN" "http://www.w3.org/Graphics/SVG/1.1/DTD/svg11.dtd">
<svg version="1.1" xmlns="http://www.w3.org/2000/svg" xmlns:xlink="http://www.w3.org/1999/xlink" x="0" y="0" width="414.384" height="414.384" viewBox="0, 0, 414.384, 414.384">
  <g id="Layer_1">
    <g>
      <path d="M182.069,107.05 L182.069,65.245 L86.774,65.245 L86.774,107.05 C60.505,111.589 41.083,121.659 29.105,137.202 C16.902,153.021 12.526,174.078 16.071,199.81 C39.35,368.463 56.835,388.548 62.587,395.157 C77.07,411.792 107.931,414.385 125.524,414.385 L143.257,414.368 C160.843,414.368 191.781,411.807 206.272,395.157 C212.013,388.549 229.509,368.464 252.785,199.81 C256.327,174.093 251.963,153.021 239.753,137.202 C227.773,121.66 208.346,111.589 182.069,107.05 z M229.461,196.583 C209.312,342.512 194.111,373.24 188.509,379.681 C182.628,386.433 164.861,390.809 143.257,390.809 L125.524,390.826 C103.966,390.826 86.239,386.449 80.342,379.681 C74.746,373.261 59.555,342.552 39.404,196.583 C36.759,177.351 39.569,162.207 47.756,151.585 C55.959,140.956 70.438,133.764 90.792,130.257 C102.081,128.301 110.334,118.503 110.334,107.05 L110.334,88.796 L158.525,88.796 L158.525,107.05 C158.525,118.503 166.776,128.301 178.059,130.257 C198.42,133.764 212.901,140.939 221.105,151.585 C229.292,162.215 232.113,177.351 229.461,196.583 z" fill="#FFFFFF"/>
      <path d="M138.907,149.684 L129.936,149.684 C106.29,149.684 54.837,152.92 62.201,213.572 C70.266,279.947 80.635,342.964 91.585,357.255 C99.662,367.818 119.393,369.185 129.143,369.185 L139.677,369.185 C149.429,369.185 169.162,367.819 177.251,357.255 C188.203,342.981 198.57,279.947 206.644,213.572 C214.021,152.919 162.561,149.684 138.907,149.684 z" fill="#FFFFFF"/>
      <path d="M383.938,180.506 L367.741,180.506 L367.741,73.561 C377.675,20.278 378.773,20.038 378.773,13.089 C378.773,5.874 372.914,0.001 365.693,0.001 C362.51,0.001 359.63,1.193 357.353,3.095 C355.081,1.2 352.2,-0 349.01,-0 C345.836,-0 342.939,1.192 340.663,3.094 C338.395,1.2 335.497,-0 332.315,-0 C325.105,-0 319.218,5.865 319.218,13.088 C319.218,20.029 320.361,20.277 330.275,73.506 L330.275,180.52 L314.053,180.52 L314.053,180.514 C305.465,180.514 298.48,187.501 298.48,196.103 L298.48,398.774 C298.48,407.39 305.481,414.359 314.053,414.359 L383.907,414.359 C392.511,414.359 399.504,407.379 399.504,398.774 L399.504,196.094 C399.516,187.485 392.526,180.506 383.938,180.506 z" fill="#FFFFFF"/>
    </g>
  </g>
</svg>
