<?xml version="1.0" encoding="UTF-8"?>
<!DOCTYPE svg PUBLIC "-//W3C//DTD SVG 1.1//EN" "http://www.w3.org/Graphics/SVG/1.1/DTD/svg11.dtd">
<svg version="1.1" xmlns="http://www.w3.org/2000/svg" xmlns:xlink="http://www.w3.org/1999/xlink" x="0" y="0" width="27.344" height="27.344" viewBox="0, 0, 455.731, 455.731">
  <g id="Layer_1">
    <g>
      <path d="M0,0 L455.731,0 L455.731,455.731 L0,455.731 z" fill="#FFFFFF"/>
      <g>
        <path d="M263.259,291.734 C263.249,290.034 262.749,288.264 262.119,286.674 C261.279,284.584 259.479,283.544 257.219,283.324 C254.569,283.064 252.449,284.134 250.529,285.834 C249.759,286.504 249.409,287.504 249.409,287.504 L249.449,341.474 L249.449,342.804 C249.449,342.804 249.909,343.424 249.979,343.504 C251.539,345.194 253.359,346.534 255.689,347.014 C259.529,347.804 262.239,346.204 262.989,342.644 C263.179,341.754 263.289,340.834 263.289,339.924 C263.309,323.854 263.339,307.794 263.259,291.734 z M263.259,291.734 C263.249,290.034 262.749,288.264 262.119,286.674 C261.279,284.584 259.479,283.544 257.219,283.324 C254.569,283.064 252.449,284.134 250.529,285.834 C249.759,286.504 249.409,287.504 249.409,287.504 L249.449,341.474 L249.449,342.804 C249.449,342.804 249.909,343.424 249.979,343.504 C251.539,345.194 253.359,346.534 255.689,347.014 C259.529,347.804 262.239,346.204 262.989,342.644 C263.179,341.754 263.289,340.834 263.289,339.924 C263.309,323.854 263.339,307.794 263.259,291.734 z M323.689,210.344 C259.819,208.974 195.919,208.974 132.039,210.344 C109.879,210.814 92.159,228.934 92.159,251.104 L92.159,350.864 C92.159,373.044 109.879,391.164 132.039,391.634 C195.919,393.004 259.819,393.004 323.689,391.634 C345.859,391.164 363.579,373.044 363.579,350.864 L363.579,251.104 C363.579,228.935 345.859,210.814 323.689,210.344 z M150.799,359.955 L132.379,359.955 L132.379,255.825 L113.309,255.825 L113.309,238.405 L169.909,238.405 L169.909,255.785 L150.799,255.785 L150.799,359.955 z M216.719,316.734 L216.719,359.964 L200.409,359.964 L200.409,350.084 C199.819,350.714 199.489,351.054 199.179,351.404 C195.669,355.364 191.689,358.664 186.609,360.414 C184.129,361.264 181.579,361.554 178.969,361.104 C175.409,360.514 173.019,358.464 171.579,355.224 C170.239,352.234 169.899,349.034 169.889,345.814 C169.849,333.914 169.869,270.934 169.869,270.324 L186.139,270.324 C186.169,270.874 186.229,316.084 186.239,338.134 C186.239,339.334 186.249,340.564 186.489,341.734 C187.089,344.694 189.359,345.964 192.209,344.924 C195.489,343.724 197.989,341.464 200.089,338.754 C200.399,338.364 200.399,337.664 200.399,337.104 L200.399,270.224 L216.719,270.184 C216.719,270.185 216.719,301.754 216.719,316.734 z M278.769,351.324 C276.589,357.884 271.789,361.224 264.889,361.154 C259.279,361.104 254.729,358.874 250.979,354.804 C250.559,354.354 249.399,353.124 249.399,353.124 L249.399,359.944 L233.059,359.944 L233.059,238.394 L249.399,238.394 C249.399,251.334 249.399,278.404 249.399,278.404 C249.399,278.404 250.319,276.564 251.159,275.614 C253.689,272.784 256.769,270.594 260.569,269.634 C266.839,268.064 274.069,270.004 277.509,277.334 C279.539,281.664 280.109,286.284 280.109,290.984 C280.139,307.974 280.139,324.964 280.119,341.954 C280.109,345.134 279.779,348.275 278.769,351.324 z M339.119,347.905 C336.289,356.195 330.439,360.795 321.859,362.055 C316.539,362.835 311.269,362.725 306.279,360.465 C299.449,357.385 295.579,351.815 293.919,344.725 C293.149,341.425 292.769,337.965 292.729,334.575 C292.599,321.265 292.659,307.945 292.689,294.635 C292.699,287.675 294.359,281.255 299.129,275.925 C304.569,269.835 311.529,267.565 319.479,268.075 C321.869,268.225 324.309,268.615 326.579,269.365 C334.309,271.905 338.439,277.695 340.059,285.375 C340.679,288.335 340.909,291.405 340.959,294.435 C341.089,301.535 340.909,317.185 340.909,317.185 L309.619,317.185 L309.619,339.615 C309.619,343.645 312.879,346.905 316.909,346.905 C320.929,346.905 324.189,343.645 324.189,339.615 L324.189,328.085 L340.999,328.085 C340.999,328.084 341.249,341.695 339.119,347.905 z M324.189,290.685 C324.189,286.665 320.929,283.395 316.909,283.395 C312.879,283.395 309.619,286.665 309.619,290.685 L309.619,303.275 L324.189,303.275 L324.189,290.685 z M262.119,286.675 C261.279,284.585 259.479,283.545 257.219,283.325 C254.569,283.065 252.449,284.135 250.529,285.835 C249.759,286.505 249.409,287.505 249.409,287.505 L249.449,341.475 L249.449,342.805 C249.449,342.805 249.909,343.425 249.979,343.505 C251.539,345.195 253.359,346.535 255.689,347.015 C259.529,347.805 262.239,346.205 262.989,342.645 C263.179,341.755 263.289,340.835 263.289,339.925 C263.309,323.855 263.339,307.795 263.259,291.735 C263.249,290.034 262.749,288.264 262.119,286.675 z" fill="#6D162E"/>
        <path d="M303.887,94.99 L303.882,185.234 L287.16,185.234 L287.18,175.539 C285.331,177.36 283.753,179.061 282.019,180.589 C278.945,183.297 275.463,185.316 271.39,186.113 C265.137,187.336 259.811,185.359 257.817,178.883 C257.153,176.726 256.752,174.401 256.735,172.149 L256.735,94.99 L273.331,94.99 L273.331,163.811 C273.331,164.723 273.404,165.645 273.564,166.539 C274.068,169.375 276.164,170.71 278.895,169.763 C282.224,168.611 284.764,166.306 286.919,163.59 C287.225,163.202 287.17,162.478 287.17,161.909 L287.17,94.99 L303.887,94.99 z" fill="#6D162E"/>
        <path d="M165.578,110.672 C161.948,95.371 154.343,63.07 154.343,63.07 L135.314,63.07 C135.314,63.07 149.934,111.557 156.472,133.181 C156.707,133.963 156.815,134.812 156.815,135.631 L156.808,185.215 L174.355,185.215 L174.348,135.631 C174.348,134.812 174.456,133.963 174.691,133.181 C181.229,111.557 195.849,63.07 195.849,63.07 L176.82,63.07 C176.82,63.07 169.214,95.371 165.585,110.672 L165.578,110.672 z" fill="#6D162E"/>
        <path d="M217.752,92.731 L217.752,92.731 C204.528,92.731 193.808,103.451 193.808,116.675 L193.808,163.534 C193.808,176.758 204.528,187.478 217.752,187.478 L217.752,187.478 C230.976,187.478 241.696,176.758 241.696,163.534 L241.696,116.675 C241.697,103.451 230.976,92.731 217.752,92.731 z M224.662,164.48 C224.662,168.29 221.562,171.389 217.753,171.389 C213.944,171.389 210.844,168.29 210.844,164.48 L210.844,115.728 C210.844,111.918 213.944,108.819 217.753,108.819 C221.562,108.819 224.662,111.919 224.662,115.728 L224.662,164.48 z" fill="#6D162E"/>
      </g>
    </g>
  </g>
</svg>
